<svg width="16" height="16" viewBox="0 0 16 16" fill="none" xmlns="http://www.w3.org/2000/svg">
<path d="M7.99984 3.98385C10.5265 3.98385 12.7798 5.40385 13.8798 7.65052C13.4865 8.46385 12.9332 9.16385 12.2732 9.73052L13.2132 10.6705C14.1398 9.85052 14.8732 8.82385 15.3332 7.65052C14.1798 4.72385 11.3332 2.65052 7.99984 2.65052C7.15317 2.65052 6.33984 2.78385 5.57317 3.03052L6.67317 4.13052C7.1065 4.04385 7.5465 3.98385 7.99984 3.98385ZM7.2865 4.74385L8.6665 6.12385C9.0465 6.29052 9.35317 6.59719 9.51984 6.97719L10.8998 8.35719C10.9532 8.13052 10.9932 7.89052 10.9932 7.64385C10.9998 5.99052 9.65317 4.65052 7.99984 4.65052C7.75317 4.65052 7.51984 4.68385 7.2865 4.74385ZM1.33984 2.56385L3.1265 4.35052C2.03984 5.20385 1.17984 6.33719 0.666504 7.65052C1.81984 10.5772 4.6665 12.6505 7.99984 12.6505C9.01317 12.6505 9.9865 12.4572 10.8798 12.1039L13.1598 14.3839L14.0998 13.4439L2.27984 1.61719L1.33984 2.56385ZM6.33984 7.56385L8.07984 9.30385C8.05317 9.31052 8.0265 9.31719 7.99984 9.31719C7.07984 9.31719 6.33317 8.57052 6.33317 7.65052C6.33317 7.61719 6.33984 7.59719 6.33984 7.56385ZM4.07317 5.29719L5.23984 6.46385C5.0865 6.83052 4.99984 7.23052 4.99984 7.65052C4.99984 9.30385 6.3465 10.6505 7.99984 10.6505C8.41984 10.6505 8.81984 10.5639 9.17984 10.4105L9.83317 11.0639C9.2465 11.2239 8.63317 11.3172 7.99984 11.3172C5.47317 11.3172 3.21984 9.89719 2.11984 7.65052C2.5865 6.69719 3.2665 5.91052 4.07317 5.29719Z" fill="#606060"/>
</svg>
